<svg width="1280" height="640" viewBox="0 0 1280 640" fill="none" xmlns="http://www.w3.org/2000/svg">
  <defs>
    <linearGradient id="bg" x1="0" y1="0" x2="1280" y2="640" gradientUnits="userSpaceOnUse">
      <stop stop-color="#0B0F14"/>
      <stop offset="1" stop-color="#121922"/>
    </linearGradient>
    <radialGradient id="glowA" cx="0" cy="0" r="1" gradientUnits="userSpaceOnUse" gradientTransform="translate(1068 62) rotate(137) scale(460 620)">
      <stop stop-color="#7EE7FF" stop-opacity="0.28"/>
      <stop offset="1" stop-color="#7EE7FF" stop-opacity="0"/>
    </radialGradient>
    <radialGradient id="glowB" cx="0" cy="0" r="1" gradientUnits="userSpaceOnUse" gradientTransform="translate(952 560) rotate(210) scale(430 330)">
      <stop stop-color="#D98645" stop-opacity="0.22"/>
      <stop offset="1" stop-color="#D98645" stop-opacity="0"/>
    </radialGradient>
    <pattern id="grid" width="36" height="36" patternUnits="userSpaceOnUse">
      <path d="M 36 0 L 0 0 0 36" fill="none" stroke="rgba(255,255,255,0.05)" stroke-width="1"/>
    </pattern>
  </defs>
  <rect width="1280" height="640" fill="url(#bg)"/>
  <rect width="1280" height="640" fill="url(#grid)" opacity="0.55"/>
  <rect width="1280" height="640" fill="url(#glowA)"/>
  <rect width="1280" height="640" fill="url(#glowB)"/>

  <path d="M86 42H286" stroke="#7EE7FF" stroke-opacity="0.72" stroke-width="2"/>
  <text x="86" y="82" fill="#9CA8B6" font-family="Arial, sans-serif" font-size="20" letter-spacing="5">LOCQUELIU / CREATIVE SYSTEMS</text>

  <rect x="1024" y="40" width="170" height="40" rx="20" fill="rgba(255,255,255,0.04)" stroke="rgba(255,255,255,0.08)"/>
  <circle cx="1052" cy="60" r="7" fill="#7EE7FF"/>
  <text x="1070" y="67" fill="#D7DEE7" font-family="Arial, sans-serif" font-size="18" letter-spacing="3">PLAYBOOK</text>

  <text x="86" y="186" font-family="Georgia, serif" font-size="92" font-weight="700">
    <tspan x="86" dy="0" fill="#F4F1EA">Xiaozhi</tspan>
    <tspan x="86" dy="96" fill="#F4F1EA">Selfhost</tspan>
    <tspan x="86" dy="96" fill="#7EE7FF">Playbook</tspan>
  </text>

  <text x="90" y="520" fill="#A9B3BF" font-family="Arial, sans-serif" font-size="24">Routing notes for OTA, WebSocket fallback, and self-hosted deployments.</text>

  <rect x="86" y="554" width="77" height="42" rx="21" fill="rgba(255,255,255,0.03)" stroke="rgba(126,231,255,0.22)"/>
<text x="104" y="581" fill="#C6D0DC" font-family="Arial, sans-serif" font-size="18" letter-spacing="1">ESP32</text>
  <rect x="177" y="554" width="143" height="42" rx="21" fill="rgba(255,255,255,0.03)" stroke="rgba(126,231,255,0.22)"/>
<text x="195" y="581" fill="#C6D0DC" font-family="Arial, sans-serif" font-size="18" letter-spacing="1">Self-hosted</text>
  <rect x="334" y="554" width="99" height="42" rx="21" fill="rgba(255,255,255,0.03)" stroke="rgba(126,231,255,0.22)"/>
<text x="352" y="581" fill="#C6D0DC" font-family="Arial, sans-serif" font-size="18" letter-spacing="1">Routing</text>

  <rect x="786" y="82" width="372" height="420" rx="34" fill="rgba(255,255,255,0.04)" stroke="rgba(126,231,255,0.26)"/>
  <rect x="724" y="156" width="336" height="352" rx="28" fill="rgba(255,255,255,0.035)" stroke="rgba(255,255,255,0.09)"/>
  <rect x="930" y="236" width="234" height="250" rx="24" fill="rgba(217,134,69,0.08)" stroke="rgba(217,134,69,0.24)"/>

  <path d="M760 160H846C876 160 904 188 904 218V258" stroke="#7EE7FF" stroke-width="3" stroke-linecap="round"/>
  <path d="M1106 282H1160C1190 282 1212 304 1212 334V384" stroke="#D98645" stroke-width="3" stroke-linecap="round"/>
  <path d="M980 266H1068" stroke="rgba(255,255,255,0.22)" stroke-width="2"/>
  <path d="M980 298H1124" stroke="rgba(255,255,255,0.18)" stroke-width="2"/>
  <path d="M980 330H1092" stroke="rgba(255,255,255,0.12)" stroke-width="2"/>
  <circle cx="1118" cy="180" r="6" fill="#7EE7FF" fill-opacity="0.9"/>
  <circle cx="1008" cy="378" r="6" fill="#D98645" fill-opacity="0.9"/>
</svg>